# xmcd
#
# Track frame offsets: 
#        150
#        64080
#        112193
#        135110
#        216155
#
# Disc length: 4055 seconds
#
# Revision: 2
# Processed by: cddbd v1.5.2PL0 Copyright (c) Steve Scherf et al.
# Submitted via: ExactAudioCopy v0.95b4
#
DISCID=440fd505
DTITLE=Karl Boehm and Wiener Philharmoniker - Brahms: 4 Symphonies, 1 of
DTITLE=3 
DYEAR=1975
DGENRE=Classical
TTITLE0=Symphony No. 1 in Cm, op. 68: I. Un poco sostenuto-Allegro
TTITLE1=Symphony No. 1 in Cm, op. 68: II. Andante sostenuto
TTITLE2=Symphony No. 1 in Cm, op. 68: III. Un poco Allegretto e grazio
TTITLE2=so
TTITLE3=Symphony No. 1 in Cm, op. 68: IV. Adagio - Allegro non troppo,
TTITLE3=ma con brio
TTITLE4=Variations on a Theme by Joseph Haydn, op. 56b
EXTD=YEAR: 1975
EXTT0=
EXTT1=
EXTT2=
EXTT3=
EXTT4=
PLAYORDER=
